<mxfile host="app.diagrams.net" modified="2021-09-22T09:29:52.229Z" agent="5.0 (Macintosh; Intel Mac OS X 10_15_7) AppleWebKit/537.36 (KHTML, like Gecko) Chrome/93.0.4577.82 Safari/537.36" etag="3Guj33ddZxsCLvN3gOA7" version="15.2.9" type="github">
  <diagram id="c3OkmmICinyhx9Qzug0u" name="Page-1">
    <mxGraphModel dx="1773" dy="646" grid="1" gridSize="10" guides="1" tooltips="1" connect="1" arrows="1" fold="1" page="1" pageScale="1" pageWidth="827" pageHeight="1169" math="0" shadow="0">
      <root>
        <mxCell id="0" />
        <mxCell id="1" parent="0" />
        <mxCell id="Q6DH_GGI92YEEvtaUU8Q-7" value="&lt;font color=&quot;#1a1a1a&quot;&gt;eu-west-2_dev_sockshop_vpc&amp;nbsp;10.10.0.0/22&lt;/font&gt;" style="outlineConnect=0;gradientColor=none;html=1;whiteSpace=wrap;fontSize=12;fontStyle=0;shape=mxgraph.aws4.group;grIcon=mxgraph.aws4.group_vpc;fillColor=none;verticalAlign=top;align=left;spacingLeft=30;fontColor=#879196;dashed=0;strokeColor=#1A1A1A;" parent="1" vertex="1">
          <mxGeometry x="-120" width="1350" height="810" as="geometry" />
        </mxCell>
        <mxCell id="PPe0d2PN77lnOir_J0Dx-55" value="" style="rounded=0;whiteSpace=wrap;html=1;align=left;fillColor=none;" parent="1" vertex="1">
          <mxGeometry x="800" width="410" height="350" as="geometry" />
        </mxCell>
        <mxCell id="PPe0d2PN77lnOir_J0Dx-1" value="" style="rounded=0;whiteSpace=wrap;html=1;dashed=1;strokeColor=#56517e;fillColor=#d0cee2;" parent="1" vertex="1">
          <mxGeometry x="357.5" y="620" width="269" height="180" as="geometry" />
        </mxCell>
        <mxCell id="PPe0d2PN77lnOir_J0Dx-4" value="" style="rounded=0;whiteSpace=wrap;html=1;dashed=1;strokeColor=#36393d;fillColor=#eeeeee;" parent="1" vertex="1">
          <mxGeometry x="383.5" y="649" width="220" height="140" as="geometry" />
        </mxCell>
        <mxCell id="PPe0d2PN77lnOir_J0Dx-2" value="" style="html=1;verticalLabelPosition=bottom;align=center;labelBackgroundColor=#ffffff;verticalAlign=top;strokeWidth=2;shadow=0;dashed=0;shape=mxgraph.ios7.icons.locked;strokeColor=#808080;" parent="1" vertex="1">
          <mxGeometry x="341" y="599.5" width="24" height="30" as="geometry" />
        </mxCell>
        <mxCell id="PPe0d2PN77lnOir_J0Dx-3" value="ALB Security Group" style="text;html=1;resizable=0;autosize=1;align=center;verticalAlign=middle;points=[];fillColor=none;strokeColor=none;rounded=0;dashed=1;" parent="1" vertex="1">
          <mxGeometry x="365" y="620" width="120" height="20" as="geometry" />
        </mxCell>
        <mxCell id="NVxo6oa8V2vWCA_GPj96-85" value="" style="rounded=0;whiteSpace=wrap;html=1;dashed=1;strokeColor=#56517e;fillColor=#d0cee2;" parent="1" vertex="1">
          <mxGeometry x="322" y="140" width="390" height="180" as="geometry" />
        </mxCell>
        <mxCell id="C30F37RpxRCgebCRkHvJ-1" style="edgeStyle=orthogonalEdgeStyle;rounded=0;orthogonalLoop=1;jettySize=auto;html=1;exitX=0;exitY=0.5;exitDx=0;exitDy=0;" parent="1" source="NVxo6oa8V2vWCA_GPj96-82" target="NVxo6oa8V2vWCA_GPj96-62" edge="1">
          <mxGeometry relative="1" as="geometry" />
        </mxCell>
        <mxCell id="NVxo6oa8V2vWCA_GPj96-82" value="" style="rounded=0;whiteSpace=wrap;html=1;dashed=1;strokeColor=#56517e;fillColor=#d0cee2;" parent="1" vertex="1">
          <mxGeometry x="257" y="350" width="520" height="230" as="geometry" />
        </mxCell>
        <mxCell id="NVxo6oa8V2vWCA_GPj96-62" value="" style="rounded=0;whiteSpace=wrap;html=1;dashed=1;strokeColor=#56517e;fillColor=#d0cee2;" parent="1" vertex="1">
          <mxGeometry x="-100" y="240" width="270" height="560" as="geometry" />
        </mxCell>
        <mxCell id="NVxo6oa8V2vWCA_GPj96-58" value="" style="rounded=0;whiteSpace=wrap;html=1;dashed=1;strokeColor=#36393d;fillColor=#eeeeee;" parent="1" vertex="1">
          <mxGeometry x="-81" y="270" width="230" height="512" as="geometry" />
        </mxCell>
        <mxCell id="NVxo6oa8V2vWCA_GPj96-56" value="" style="rounded=0;whiteSpace=wrap;html=1;dashed=1;strokeColor=#36393d;fillColor=#eeeeee;" parent="1" vertex="1">
          <mxGeometry x="357" y="165" width="320" height="140" as="geometry" />
        </mxCell>
        <mxCell id="NVxo6oa8V2vWCA_GPj96-54" value="" style="rounded=0;whiteSpace=wrap;html=1;dashed=1;strokeColor=#36393d;fillColor=#eeeeee;" parent="1" vertex="1">
          <mxGeometry x="277" y="360" width="480" height="190" as="geometry" />
        </mxCell>
        <mxCell id="NVxo6oa8V2vWCA_GPj96-47" style="edgeStyle=orthogonalEdgeStyle;rounded=0;orthogonalLoop=1;jettySize=auto;html=1;entryX=0.5;entryY=0;entryDx=0;entryDy=0;entryPerimeter=0;" parent="1" source="Q6DH_GGI92YEEvtaUU8Q-6" target="NVxo6oa8V2vWCA_GPj96-46" edge="1">
          <mxGeometry relative="1" as="geometry" />
        </mxCell>
        <mxCell id="Q6DH_GGI92YEEvtaUU8Q-6" value="NodeGroup1" style="rounded=0;whiteSpace=wrap;html=1;verticalAlign=top;" parent="1" vertex="1">
          <mxGeometry x="307" y="400" width="420" height="110" as="geometry" />
        </mxCell>
        <mxCell id="NVxo6oa8V2vWCA_GPj96-49" style="edgeStyle=orthogonalEdgeStyle;rounded=0;orthogonalLoop=1;jettySize=auto;html=1;" parent="1" source="Q6DH_GGI92YEEvtaUU8Q-1" target="Q6DH_GGI92YEEvtaUU8Q-6" edge="1">
          <mxGeometry relative="1" as="geometry" />
        </mxCell>
        <mxCell id="Q6DH_GGI92YEEvtaUU8Q-1" value="Amazon EKS" style="outlineConnect=0;fontColor=#232F3E;gradientColor=none;strokeColor=#ffffff;fillColor=#232F3E;dashed=0;verticalLabelPosition=middle;verticalAlign=bottom;align=center;html=1;whiteSpace=wrap;fontSize=10;fontStyle=1;spacing=3;shape=mxgraph.aws4.productIcon;prIcon=mxgraph.aws4.eks;" parent="1" vertex="1">
          <mxGeometry x="477" y="195" width="80" height="100" as="geometry" />
        </mxCell>
        <mxCell id="Q6DH_GGI92YEEvtaUU8Q-2" value="EC2WorkerNode (t2.medium)" style="html=1;dashed=0;whitespace=wrap;fillColor=#2875E2;strokeColor=#ffffff;points=[[0.005,0.63,0],[0.1,0.2,0],[0.9,0.2,0],[0.5,0,0],[0.995,0.63,0],[0.72,0.99,0],[0.5,1,0],[0.28,0.99,0]];shape=mxgraph.kubernetes.icon;prIcon=node;verticalAlign=top;labelPosition=center;verticalLabelPosition=bottom;align=center;" parent="1" vertex="1">
          <mxGeometry x="377" y="420" width="50" height="48" as="geometry" />
        </mxCell>
        <mxCell id="Q6DH_GGI92YEEvtaUU8Q-5" value="EC2WorkerNode (t2.medium)" style="html=1;dashed=0;whitespace=wrap;fillColor=#2875E2;strokeColor=#ffffff;points=[[0.005,0.63,0],[0.1,0.2,0],[0.9,0.2,0],[0.5,0,0],[0.995,0.63,0],[0.72,0.99,0],[0.5,1,0],[0.28,0.99,0]];shape=mxgraph.kubernetes.icon;prIcon=node;verticalAlign=top;labelPosition=center;verticalLabelPosition=bottom;align=center;" parent="1" vertex="1">
          <mxGeometry x="617" y="420" width="50" height="48" as="geometry" />
        </mxCell>
        <mxCell id="NVxo6oa8V2vWCA_GPj96-1" value="&lt;font color=&quot;#000000&quot;&gt;Subnets&lt;/font&gt;" style="outlineConnect=0;gradientColor=none;html=1;whiteSpace=wrap;fontSize=12;fontStyle=0;shape=mxgraph.aws4.group;grIcon=mxgraph.aws4.group_subnet;fillColor=none;verticalAlign=top;align=left;spacingLeft=30;fontColor=#E8E8E8;dashed=0;" parent="1" vertex="1">
          <mxGeometry x="256" width="360" height="110" as="geometry" />
        </mxCell>
        <mxCell id="NVxo6oa8V2vWCA_GPj96-24" value="" style="shape=table;startSize=0;container=1;collapsible=0;childLayout=tableLayout;" parent="1" vertex="1">
          <mxGeometry x="256" y="30" width="360" height="80" as="geometry" />
        </mxCell>
        <mxCell id="NVxo6oa8V2vWCA_GPj96-25" value="" style="shape=partialRectangle;collapsible=0;dropTarget=0;pointerEvents=0;fillColor=none;top=0;left=0;bottom=0;right=0;points=[[0,0.5],[1,0.5]];portConstraint=eastwest;" parent="NVxo6oa8V2vWCA_GPj96-24" vertex="1">
          <mxGeometry width="360" height="20" as="geometry" />
        </mxCell>
        <mxCell id="NVxo6oa8V2vWCA_GPj96-26" value="" style="shape=partialRectangle;html=1;whiteSpace=wrap;connectable=0;overflow=hidden;fillColor=none;top=0;left=0;bottom=0;right=0;pointerEvents=1;" parent="NVxo6oa8V2vWCA_GPj96-25" vertex="1">
          <mxGeometry width="180" height="20" as="geometry" />
        </mxCell>
        <mxCell id="NVxo6oa8V2vWCA_GPj96-27" value="" style="shape=partialRectangle;html=1;whiteSpace=wrap;connectable=0;overflow=hidden;fillColor=none;top=0;left=0;bottom=0;right=0;pointerEvents=1;" parent="NVxo6oa8V2vWCA_GPj96-25" vertex="1">
          <mxGeometry x="180" width="180" height="20" as="geometry" />
        </mxCell>
        <mxCell id="NVxo6oa8V2vWCA_GPj96-28" value="" style="shape=partialRectangle;collapsible=0;dropTarget=0;pointerEvents=0;fillColor=none;top=0;left=0;bottom=0;right=0;points=[[0,0.5],[1,0.5]];portConstraint=eastwest;" parent="NVxo6oa8V2vWCA_GPj96-24" vertex="1">
          <mxGeometry y="20" width="360" height="20" as="geometry" />
        </mxCell>
        <mxCell id="NVxo6oa8V2vWCA_GPj96-29" value="" style="shape=partialRectangle;html=1;whiteSpace=wrap;connectable=0;overflow=hidden;fillColor=none;top=0;left=0;bottom=0;right=0;pointerEvents=1;" parent="NVxo6oa8V2vWCA_GPj96-28" vertex="1">
          <mxGeometry width="180" height="20" as="geometry" />
        </mxCell>
        <mxCell id="NVxo6oa8V2vWCA_GPj96-30" value="" style="shape=partialRectangle;html=1;whiteSpace=wrap;connectable=0;overflow=hidden;fillColor=none;top=0;left=0;bottom=0;right=0;pointerEvents=1;" parent="NVxo6oa8V2vWCA_GPj96-28" vertex="1">
          <mxGeometry x="180" width="180" height="20" as="geometry" />
        </mxCell>
        <mxCell id="NVxo6oa8V2vWCA_GPj96-31" value="" style="shape=partialRectangle;collapsible=0;dropTarget=0;pointerEvents=0;fillColor=none;top=0;left=0;bottom=0;right=0;points=[[0,0.5],[1,0.5]];portConstraint=eastwest;" parent="NVxo6oa8V2vWCA_GPj96-24" vertex="1">
          <mxGeometry y="40" width="360" height="20" as="geometry" />
        </mxCell>
        <mxCell id="NVxo6oa8V2vWCA_GPj96-32" value="" style="shape=partialRectangle;html=1;whiteSpace=wrap;connectable=0;overflow=hidden;fillColor=none;top=0;left=0;bottom=0;right=0;pointerEvents=1;" parent="NVxo6oa8V2vWCA_GPj96-31" vertex="1">
          <mxGeometry width="180" height="20" as="geometry" />
        </mxCell>
        <mxCell id="NVxo6oa8V2vWCA_GPj96-33" value="" style="shape=partialRectangle;html=1;whiteSpace=wrap;connectable=0;overflow=hidden;fillColor=none;top=0;left=0;bottom=0;right=0;pointerEvents=1;" parent="NVxo6oa8V2vWCA_GPj96-31" vertex="1">
          <mxGeometry x="180" width="180" height="20" as="geometry" />
        </mxCell>
        <mxCell id="NVxo6oa8V2vWCA_GPj96-34" value="" style="shape=partialRectangle;collapsible=0;dropTarget=0;pointerEvents=0;fillColor=none;top=0;left=0;bottom=0;right=0;points=[[0,0.5],[1,0.5]];portConstraint=eastwest;" parent="NVxo6oa8V2vWCA_GPj96-24" vertex="1">
          <mxGeometry y="60" width="360" height="20" as="geometry" />
        </mxCell>
        <mxCell id="NVxo6oa8V2vWCA_GPj96-35" value="" style="shape=partialRectangle;html=1;whiteSpace=wrap;connectable=0;overflow=hidden;fillColor=none;top=0;left=0;bottom=0;right=0;pointerEvents=1;" parent="NVxo6oa8V2vWCA_GPj96-34" vertex="1">
          <mxGeometry width="180" height="20" as="geometry" />
        </mxCell>
        <mxCell id="NVxo6oa8V2vWCA_GPj96-36" value="" style="shape=partialRectangle;html=1;whiteSpace=wrap;connectable=0;overflow=hidden;fillColor=none;top=0;left=0;bottom=0;right=0;pointerEvents=1;" parent="NVxo6oa8V2vWCA_GPj96-34" vertex="1">
          <mxGeometry x="180" width="180" height="20" as="geometry" />
        </mxCell>
        <mxCell id="NVxo6oa8V2vWCA_GPj96-2" value="eu-west-2_dev_public_subnet-a" style="text;html=1;resizable=0;autosize=1;align=center;verticalAlign=middle;points=[];fillColor=none;strokeColor=none;rounded=0;" parent="1" vertex="1">
          <mxGeometry x="250" y="30" width="190" height="20" as="geometry" />
        </mxCell>
        <mxCell id="NVxo6oa8V2vWCA_GPj96-37" value="10.10.0.0/24" style="text;html=1;resizable=0;autosize=1;align=center;verticalAlign=middle;points=[];fillColor=none;strokeColor=none;rounded=0;" parent="1" vertex="1">
          <mxGeometry x="491" y="30" width="80" height="20" as="geometry" />
        </mxCell>
        <mxCell id="NVxo6oa8V2vWCA_GPj96-38" value="eu-west-2_dev_public_subnet-b" style="text;html=1;resizable=0;autosize=1;align=center;verticalAlign=middle;points=[];fillColor=none;strokeColor=none;rounded=0;" parent="1" vertex="1">
          <mxGeometry x="250" y="50" width="190" height="20" as="geometry" />
        </mxCell>
        <mxCell id="NVxo6oa8V2vWCA_GPj96-39" value="10.10.1.0/24" style="text;html=1;resizable=0;autosize=1;align=center;verticalAlign=middle;points=[];fillColor=none;strokeColor=none;rounded=0;" parent="1" vertex="1">
          <mxGeometry x="491" y="50" width="80" height="20" as="geometry" />
        </mxCell>
        <mxCell id="NVxo6oa8V2vWCA_GPj96-40" value="eu-west-2_dev_private_subnet-a" style="text;html=1;resizable=0;autosize=1;align=center;verticalAlign=middle;points=[];fillColor=none;strokeColor=none;rounded=0;" parent="1" vertex="1">
          <mxGeometry x="251" y="69" width="190" height="20" as="geometry" />
        </mxCell>
        <mxCell id="NVxo6oa8V2vWCA_GPj96-41" value="10.10.2.0/24" style="text;html=1;resizable=0;autosize=1;align=center;verticalAlign=middle;points=[];fillColor=none;strokeColor=none;rounded=0;" parent="1" vertex="1">
          <mxGeometry x="491" y="69" width="80" height="20" as="geometry" />
        </mxCell>
        <mxCell id="NVxo6oa8V2vWCA_GPj96-42" value="eu-west-2_dev_private_subnet-b" style="text;html=1;resizable=0;autosize=1;align=center;verticalAlign=middle;points=[];fillColor=none;strokeColor=none;rounded=0;" parent="1" vertex="1">
          <mxGeometry x="252" y="89" width="190" height="20" as="geometry" />
        </mxCell>
        <mxCell id="NVxo6oa8V2vWCA_GPj96-43" value="10.10.3.0/24" style="text;html=1;resizable=0;autosize=1;align=center;verticalAlign=middle;points=[];fillColor=none;strokeColor=none;rounded=0;" parent="1" vertex="1">
          <mxGeometry x="491" y="89" width="80" height="20" as="geometry" />
        </mxCell>
        <mxCell id="NVxo6oa8V2vWCA_GPj96-45" value="IGW" style="outlineConnect=0;dashed=0;verticalLabelPosition=bottom;verticalAlign=top;align=right;html=1;shape=mxgraph.aws3.internet_gateway;fillColor=#F58534;gradientColor=none;strokeColor=#000000;labelPosition=left;" parent="1" vertex="1">
          <mxGeometry x="860" y="770" width="69" height="72" as="geometry" />
        </mxCell>
        <mxCell id="NVxo6oa8V2vWCA_GPj96-48" style="edgeStyle=orthogonalEdgeStyle;rounded=0;orthogonalLoop=1;jettySize=auto;html=1;exitX=0.835;exitY=0.5;exitDx=0;exitDy=0;exitPerimeter=0;" parent="1" source="NVxo6oa8V2vWCA_GPj96-46" target="NVxo6oa8V2vWCA_GPj96-45" edge="1">
          <mxGeometry relative="1" as="geometry" />
        </mxCell>
        <mxCell id="NVxo6oa8V2vWCA_GPj96-46" value="ALB" style="outlineConnect=0;dashed=0;verticalLabelPosition=bottom;verticalAlign=top;align=center;html=1;shape=mxgraph.aws3.elastic_load_balancing;fillColor=#F58536;gradientColor=none;strokeColor=#000000;" parent="1" vertex="1">
          <mxGeometry x="492" y="692.5" width="50" height="53" as="geometry" />
        </mxCell>
        <mxCell id="NVxo6oa8V2vWCA_GPj96-50" value="DocumentDB for Mongo &lt;br&gt;(db.t3.medium)" style="shape=image;html=1;verticalAlign=top;verticalLabelPosition=bottom;labelBackgroundColor=#ffffff;imageAspect=0;aspect=fixed;image=https://cdn4.iconfinder.com/data/icons/wonderful-christmas-3d-1/128/2._Cooking_1024.png;strokeColor=#000000;" parent="1" vertex="1">
          <mxGeometry x="-11" y="290" width="90" height="90" as="geometry" />
        </mxCell>
        <mxCell id="NVxo6oa8V2vWCA_GPj96-51" value="Amazon ElastiCache for Redis (cache.t2.small)" style="outlineConnect=0;fontColor=#232F3E;gradientColor=none;strokeColor=#ffffff;fillColor=#232F3E;dashed=0;verticalLabelPosition=middle;verticalAlign=bottom;align=center;html=1;whiteSpace=wrap;fontSize=10;fontStyle=1;spacing=3;shape=mxgraph.aws4.productIcon;prIcon=mxgraph.aws4.elasticache_for_redis;" parent="1" vertex="1">
          <mxGeometry x="-6" y="470" width="80" height="120" as="geometry" />
        </mxCell>
        <mxCell id="NVxo6oa8V2vWCA_GPj96-52" value="Amazon&lt;br&gt;Aurora MySQL (db.t2.medium)" style="outlineConnect=0;fontColor=#232F3E;gradientColor=none;strokeColor=#ffffff;fillColor=#232F3E;dashed=0;verticalLabelPosition=middle;verticalAlign=bottom;align=center;html=1;whiteSpace=wrap;fontSize=10;fontStyle=1;spacing=3;shape=mxgraph.aws4.productIcon;prIcon=mxgraph.aws4.aurora;" parent="1" vertex="1">
          <mxGeometry x="-6" y="632" width="80" height="118" as="geometry" />
        </mxCell>
        <mxCell id="NVxo6oa8V2vWCA_GPj96-55" value="Private Subnets" style="text;html=1;resizable=0;autosize=1;align=center;verticalAlign=middle;points=[];fillColor=none;strokeColor=none;rounded=0;dashed=1;" parent="1" vertex="1">
          <mxGeometry x="277" y="360" width="100" height="20" as="geometry" />
        </mxCell>
        <mxCell id="NVxo6oa8V2vWCA_GPj96-57" value="Public Subnets" style="text;html=1;resizable=0;autosize=1;align=center;verticalAlign=middle;points=[];fillColor=none;strokeColor=none;rounded=0;dashed=1;" parent="1" vertex="1">
          <mxGeometry x="390" y="165" width="100" height="20" as="geometry" />
        </mxCell>
        <mxCell id="NVxo6oa8V2vWCA_GPj96-59" value="Private Subnets" style="text;html=1;resizable=0;autosize=1;align=center;verticalAlign=middle;points=[];fillColor=none;strokeColor=none;rounded=0;dashed=1;" parent="1" vertex="1">
          <mxGeometry x="-81" y="270" width="100" height="20" as="geometry" />
        </mxCell>
        <mxCell id="NVxo6oa8V2vWCA_GPj96-60" value="CloudWatch" style="outlineConnect=0;dashed=0;verticalLabelPosition=bottom;verticalAlign=top;align=center;html=1;shape=mxgraph.aws3.cloudwatch;fillColor=#759C3E;gradientColor=none;strokeColor=#1A1A1A;" parent="1" vertex="1">
          <mxGeometry x="50" y="72.25" width="70" height="73.5" as="geometry" />
        </mxCell>
        <mxCell id="NVxo6oa8V2vWCA_GPj96-61" value="ECR" style="outlineConnect=0;dashed=0;verticalLabelPosition=bottom;verticalAlign=top;align=center;html=1;shape=mxgraph.aws3.ecr;fillColor=#F58534;gradientColor=none;strokeColor=#1A1A1A;" parent="1" vertex="1">
          <mxGeometry x="149" y="80" width="69" height="72" as="geometry" />
        </mxCell>
        <mxCell id="NVxo6oa8V2vWCA_GPj96-63" value="" style="html=1;verticalLabelPosition=bottom;align=center;labelBackgroundColor=#ffffff;verticalAlign=top;strokeWidth=2;shadow=0;dashed=0;shape=mxgraph.ios7.icons.locked;strokeColor=#808080;" parent="1" vertex="1">
          <mxGeometry x="-105.5" y="220" width="24" height="30" as="geometry" />
        </mxCell>
        <mxCell id="NVxo6oa8V2vWCA_GPj96-64" value="DB Security Group" style="text;html=1;resizable=0;autosize=1;align=center;verticalAlign=middle;points=[];fillColor=none;strokeColor=none;rounded=0;dashed=1;" parent="1" vertex="1">
          <mxGeometry x="-81.5" y="240" width="120" height="20" as="geometry" />
        </mxCell>
        <mxCell id="NVxo6oa8V2vWCA_GPj96-83" value="" style="html=1;verticalLabelPosition=bottom;align=center;labelBackgroundColor=#ffffff;verticalAlign=top;strokeWidth=2;shadow=0;dashed=0;shape=mxgraph.ios7.icons.locked;strokeColor=#808080;" parent="1" vertex="1">
          <mxGeometry x="240" y="554.5" width="24" height="30" as="geometry" />
        </mxCell>
        <mxCell id="NVxo6oa8V2vWCA_GPj96-84" value="NodeGroup Security Group" style="text;html=1;resizable=0;autosize=1;align=center;verticalAlign=middle;points=[];fillColor=none;strokeColor=none;rounded=0;dashed=1;" parent="1" vertex="1">
          <mxGeometry x="264" y="559.5" width="160" height="20" as="geometry" />
        </mxCell>
        <mxCell id="NVxo6oa8V2vWCA_GPj96-86" value="" style="html=1;verticalLabelPosition=bottom;align=center;labelBackgroundColor=#ffffff;verticalAlign=top;strokeWidth=2;shadow=0;dashed=0;shape=mxgraph.ios7.icons.locked;strokeColor=#808080;" parent="1" vertex="1">
          <mxGeometry x="307" y="120" width="24" height="30" as="geometry" />
        </mxCell>
        <mxCell id="NVxo6oa8V2vWCA_GPj96-87" value="EKSCP Security Group" style="text;html=1;resizable=0;autosize=1;align=center;verticalAlign=middle;points=[];fillColor=none;strokeColor=none;rounded=0;dashed=1;" parent="1" vertex="1">
          <mxGeometry x="331" y="140" width="140" height="20" as="geometry" />
        </mxCell>
        <mxCell id="PPe0d2PN77lnOir_J0Dx-5" value="Public Subnets" style="text;html=1;resizable=0;autosize=1;align=center;verticalAlign=middle;points=[];fillColor=none;strokeColor=none;rounded=0;dashed=1;" parent="1" vertex="1">
          <mxGeometry x="414.5" y="649" width="100" height="20" as="geometry" />
        </mxCell>
        <mxCell id="PPe0d2PN77lnOir_J0Dx-44" value="" style="shape=table;startSize=0;container=1;collapsible=0;childLayout=tableLayout;" parent="1" vertex="1">
          <mxGeometry x="800" y="50" width="410" height="70" as="geometry" />
        </mxCell>
        <mxCell id="PPe0d2PN77lnOir_J0Dx-45" value="" style="shape=partialRectangle;collapsible=0;dropTarget=0;pointerEvents=0;fillColor=none;top=0;left=0;bottom=0;right=0;points=[[0,0.5],[1,0.5]];portConstraint=eastwest;" parent="PPe0d2PN77lnOir_J0Dx-44" vertex="1">
          <mxGeometry width="410" height="25" as="geometry" />
        </mxCell>
        <mxCell id="PPe0d2PN77lnOir_J0Dx-46" value="Ingress" style="shape=partialRectangle;html=1;whiteSpace=wrap;connectable=0;overflow=hidden;fillColor=none;top=0;left=0;bottom=0;right=0;pointerEvents=1;fontStyle=1" parent="PPe0d2PN77lnOir_J0Dx-45" vertex="1">
          <mxGeometry width="205" height="25" as="geometry" />
        </mxCell>
        <mxCell id="PPe0d2PN77lnOir_J0Dx-47" value="Egress" style="shape=partialRectangle;html=1;whiteSpace=wrap;connectable=0;overflow=hidden;fillColor=none;top=0;left=0;bottom=0;right=0;pointerEvents=1;fontStyle=1" parent="PPe0d2PN77lnOir_J0Dx-45" vertex="1">
          <mxGeometry x="205" width="205" height="25" as="geometry" />
        </mxCell>
        <mxCell id="PPe0d2PN77lnOir_J0Dx-48" value="" style="shape=partialRectangle;collapsible=0;dropTarget=0;pointerEvents=0;fillColor=none;top=0;left=0;bottom=0;right=0;points=[[0,0.5],[1,0.5]];portConstraint=eastwest;" parent="PPe0d2PN77lnOir_J0Dx-44" vertex="1">
          <mxGeometry y="25" width="410" height="21" as="geometry" />
        </mxCell>
        <mxCell id="PPe0d2PN77lnOir_J0Dx-49" value="&lt;div style=&quot;font-family: &amp;#34;menlo&amp;#34; , &amp;#34;monaco&amp;#34; , &amp;#34;courier new&amp;#34; , monospace ; line-height: 18px&quot;&gt;&lt;span style=&quot;background-color: rgb(255 , 255 , 255)&quot;&gt;&lt;font color=&quot;#b09e8f&quot;&gt;Kainos IP addresses&lt;/font&gt;&lt;/span&gt;&lt;/div&gt;" style="shape=partialRectangle;html=1;whiteSpace=wrap;connectable=0;overflow=hidden;fillColor=none;top=0;left=0;bottom=0;right=0;pointerEvents=1;" parent="PPe0d2PN77lnOir_J0Dx-48" vertex="1">
          <mxGeometry width="205" height="21" as="geometry" />
        </mxCell>
        <mxCell id="PPe0d2PN77lnOir_J0Dx-50" value="&lt;font&gt;NodeGroup SG&lt;/font&gt;" style="shape=partialRectangle;html=1;whiteSpace=wrap;connectable=0;overflow=hidden;fillColor=none;top=0;left=0;bottom=0;right=0;pointerEvents=1;fontColor=#B09E8F;" parent="PPe0d2PN77lnOir_J0Dx-48" vertex="1">
          <mxGeometry x="205" width="205" height="21" as="geometry" />
        </mxCell>
        <mxCell id="PPe0d2PN77lnOir_J0Dx-51" value="" style="shape=partialRectangle;collapsible=0;dropTarget=0;pointerEvents=0;fillColor=none;top=0;left=0;bottom=0;right=0;points=[[0,0.5],[1,0.5]];portConstraint=eastwest;" parent="PPe0d2PN77lnOir_J0Dx-44" vertex="1">
          <mxGeometry y="46" width="410" height="24" as="geometry" />
        </mxCell>
        <mxCell id="PPe0d2PN77lnOir_J0Dx-52" value="NodeGroup SG" style="shape=partialRectangle;html=1;whiteSpace=wrap;connectable=0;overflow=hidden;fillColor=none;top=0;left=0;bottom=0;right=0;pointerEvents=1;fontColor=#B09E8F;" parent="PPe0d2PN77lnOir_J0Dx-51" vertex="1">
          <mxGeometry width="205" height="24" as="geometry" />
        </mxCell>
        <mxCell id="PPe0d2PN77lnOir_J0Dx-53" value="-" style="shape=partialRectangle;html=1;whiteSpace=wrap;connectable=0;overflow=hidden;fillColor=none;top=0;left=0;bottom=0;right=0;pointerEvents=1;" parent="PPe0d2PN77lnOir_J0Dx-51" vertex="1">
          <mxGeometry x="205" width="205" height="24" as="geometry" />
        </mxCell>
        <mxCell id="PPe0d2PN77lnOir_J0Dx-54" value="" style="aspect=fixed;html=1;points=[];align=center;image;fontSize=12;image=img/lib/mscae/Network_Security_Groups_Classic.svg;" parent="1" vertex="1">
          <mxGeometry x="803" y="1" width="14.8" height="20" as="geometry" />
        </mxCell>
        <mxCell id="PPe0d2PN77lnOir_J0Dx-56" value="Security Groups" style="text;html=1;resizable=0;autosize=1;align=center;verticalAlign=middle;points=[];fillColor=none;strokeColor=none;rounded=0;" parent="1" vertex="1">
          <mxGeometry x="814.8" width="100" height="20" as="geometry" />
        </mxCell>
        <mxCell id="PPe0d2PN77lnOir_J0Dx-57" value="" style="rounded=0;whiteSpace=wrap;html=1;align=left;" parent="1" vertex="1">
          <mxGeometry x="800" y="25" width="410" height="25" as="geometry" />
        </mxCell>
        <mxCell id="PPe0d2PN77lnOir_J0Dx-58" value="EKSCP SG" style="text;html=1;resizable=0;autosize=1;align=center;verticalAlign=middle;points=[];fillColor=none;strokeColor=none;rounded=0;fontStyle=1;fontColor=#0000CC;" parent="1" vertex="1">
          <mxGeometry x="965" y="27.5" width="80" height="20" as="geometry" />
        </mxCell>
        <mxCell id="PPe0d2PN77lnOir_J0Dx-60" value="" style="shape=table;startSize=0;container=1;collapsible=0;childLayout=tableLayout;" parent="1" vertex="1">
          <mxGeometry x="800" y="145" width="410" height="70" as="geometry" />
        </mxCell>
        <mxCell id="PPe0d2PN77lnOir_J0Dx-61" value="" style="shape=partialRectangle;collapsible=0;dropTarget=0;pointerEvents=0;fillColor=none;top=0;left=0;bottom=0;right=0;points=[[0,0.5],[1,0.5]];portConstraint=eastwest;" parent="PPe0d2PN77lnOir_J0Dx-60" vertex="1">
          <mxGeometry width="410" height="25" as="geometry" />
        </mxCell>
        <mxCell id="PPe0d2PN77lnOir_J0Dx-62" value="Ingress" style="shape=partialRectangle;html=1;whiteSpace=wrap;connectable=0;overflow=hidden;fillColor=none;top=0;left=0;bottom=0;right=0;pointerEvents=1;fontStyle=1" parent="PPe0d2PN77lnOir_J0Dx-61" vertex="1">
          <mxGeometry width="205" height="25" as="geometry" />
        </mxCell>
        <mxCell id="PPe0d2PN77lnOir_J0Dx-63" value="Egress" style="shape=partialRectangle;html=1;whiteSpace=wrap;connectable=0;overflow=hidden;fillColor=none;top=0;left=0;bottom=0;right=0;pointerEvents=1;fontStyle=1" parent="PPe0d2PN77lnOir_J0Dx-61" vertex="1">
          <mxGeometry x="205" width="205" height="25" as="geometry" />
        </mxCell>
        <mxCell id="PPe0d2PN77lnOir_J0Dx-64" value="" style="shape=partialRectangle;collapsible=0;dropTarget=0;pointerEvents=0;fillColor=none;top=0;left=0;bottom=0;right=0;points=[[0,0.5],[1,0.5]];portConstraint=eastwest;" parent="PPe0d2PN77lnOir_J0Dx-60" vertex="1">
          <mxGeometry y="25" width="410" height="21" as="geometry" />
        </mxCell>
        <mxCell id="PPe0d2PN77lnOir_J0Dx-65" value="&lt;div style=&quot;font-family: &amp;#34;menlo&amp;#34; , &amp;#34;monaco&amp;#34; , &amp;#34;courier new&amp;#34; , monospace ; line-height: 18px&quot;&gt;&lt;span style=&quot;background-color: rgb(255 , 255 , 255)&quot;&gt;&lt;font color=&quot;#b09e8f&quot;&gt;EKSCP SG&lt;/font&gt;&lt;/span&gt;&lt;/div&gt;" style="shape=partialRectangle;html=1;whiteSpace=wrap;connectable=0;overflow=hidden;fillColor=none;top=0;left=0;bottom=0;right=0;pointerEvents=1;" parent="PPe0d2PN77lnOir_J0Dx-64" vertex="1">
          <mxGeometry width="205" height="21" as="geometry" />
        </mxCell>
        <mxCell id="PPe0d2PN77lnOir_J0Dx-66" value="&lt;font&gt;ALB SG&lt;/font&gt;" style="shape=partialRectangle;html=1;whiteSpace=wrap;connectable=0;overflow=hidden;fillColor=none;top=0;left=0;bottom=0;right=0;pointerEvents=1;fontColor=#B09E8F;" parent="PPe0d2PN77lnOir_J0Dx-64" vertex="1">
          <mxGeometry x="205" width="205" height="21" as="geometry" />
        </mxCell>
        <mxCell id="PPe0d2PN77lnOir_J0Dx-67" value="" style="shape=partialRectangle;collapsible=0;dropTarget=0;pointerEvents=0;fillColor=none;top=0;left=0;bottom=0;right=0;points=[[0,0.5],[1,0.5]];portConstraint=eastwest;" parent="PPe0d2PN77lnOir_J0Dx-60" vertex="1">
          <mxGeometry y="46" width="410" height="24" as="geometry" />
        </mxCell>
        <mxCell id="PPe0d2PN77lnOir_J0Dx-68" value="-" style="shape=partialRectangle;html=1;whiteSpace=wrap;connectable=0;overflow=hidden;fillColor=none;top=0;left=0;bottom=0;right=0;pointerEvents=1;fontColor=#B09E8F;" parent="PPe0d2PN77lnOir_J0Dx-67" vertex="1">
          <mxGeometry width="205" height="24" as="geometry" />
        </mxCell>
        <mxCell id="PPe0d2PN77lnOir_J0Dx-69" value="&lt;font color=&quot;#b09e8f&quot;&gt;DB SG&lt;/font&gt;" style="shape=partialRectangle;html=1;whiteSpace=wrap;connectable=0;overflow=hidden;fillColor=none;top=0;left=0;bottom=0;right=0;pointerEvents=1;" parent="PPe0d2PN77lnOir_J0Dx-67" vertex="1">
          <mxGeometry x="205" width="205" height="24" as="geometry" />
        </mxCell>
        <mxCell id="PPe0d2PN77lnOir_J0Dx-70" value="" style="rounded=0;whiteSpace=wrap;html=1;align=left;" parent="1" vertex="1">
          <mxGeometry x="800" y="120" width="410" height="25" as="geometry" />
        </mxCell>
        <mxCell id="PPe0d2PN77lnOir_J0Dx-71" value="NodeGroup SG" style="text;html=1;resizable=0;autosize=1;align=center;verticalAlign=middle;points=[];fillColor=none;strokeColor=none;rounded=0;fontStyle=1;fontColor=#0000CC;" parent="1" vertex="1">
          <mxGeometry x="955" y="122.5" width="100" height="20" as="geometry" />
        </mxCell>
        <mxCell id="PPe0d2PN77lnOir_J0Dx-72" value="" style="shape=table;startSize=0;container=1;collapsible=0;childLayout=tableLayout;" parent="1" vertex="1">
          <mxGeometry x="800" y="240" width="410" height="46" as="geometry" />
        </mxCell>
        <mxCell id="PPe0d2PN77lnOir_J0Dx-73" value="" style="shape=partialRectangle;collapsible=0;dropTarget=0;pointerEvents=0;fillColor=none;top=0;left=0;bottom=0;right=0;points=[[0,0.5],[1,0.5]];portConstraint=eastwest;" parent="PPe0d2PN77lnOir_J0Dx-72" vertex="1">
          <mxGeometry width="410" height="25" as="geometry" />
        </mxCell>
        <mxCell id="PPe0d2PN77lnOir_J0Dx-74" value="Ingress" style="shape=partialRectangle;html=1;whiteSpace=wrap;connectable=0;overflow=hidden;fillColor=none;top=0;left=0;bottom=0;right=0;pointerEvents=1;fontStyle=1" parent="PPe0d2PN77lnOir_J0Dx-73" vertex="1">
          <mxGeometry width="205" height="25" as="geometry" />
        </mxCell>
        <mxCell id="PPe0d2PN77lnOir_J0Dx-75" value="Egress" style="shape=partialRectangle;html=1;whiteSpace=wrap;connectable=0;overflow=hidden;fillColor=none;top=0;left=0;bottom=0;right=0;pointerEvents=1;fontStyle=1" parent="PPe0d2PN77lnOir_J0Dx-73" vertex="1">
          <mxGeometry x="205" width="205" height="25" as="geometry" />
        </mxCell>
        <mxCell id="PPe0d2PN77lnOir_J0Dx-76" value="" style="shape=partialRectangle;collapsible=0;dropTarget=0;pointerEvents=0;fillColor=none;top=0;left=0;bottom=0;right=0;points=[[0,0.5],[1,0.5]];portConstraint=eastwest;" parent="PPe0d2PN77lnOir_J0Dx-72" vertex="1">
          <mxGeometry y="25" width="410" height="21" as="geometry" />
        </mxCell>
        <mxCell id="PPe0d2PN77lnOir_J0Dx-77" value="&lt;div style=&quot;font-family: &amp;#34;menlo&amp;#34; , &amp;#34;monaco&amp;#34; , &amp;#34;courier new&amp;#34; , monospace ; line-height: 18px&quot;&gt;&lt;span style=&quot;background-color: rgb(255 , 255 , 255)&quot;&gt;&lt;font color=&quot;#b09e8f&quot;&gt;Kainos IP addresses&lt;/font&gt;&lt;/span&gt;&lt;/div&gt;" style="shape=partialRectangle;html=1;whiteSpace=wrap;connectable=0;overflow=hidden;fillColor=none;top=0;left=0;bottom=0;right=0;pointerEvents=1;" parent="PPe0d2PN77lnOir_J0Dx-76" vertex="1">
          <mxGeometry width="205" height="21" as="geometry" />
        </mxCell>
        <mxCell id="PPe0d2PN77lnOir_J0Dx-78" value="&lt;font&gt;NodeGroup SG&lt;/font&gt;" style="shape=partialRectangle;html=1;whiteSpace=wrap;connectable=0;overflow=hidden;fillColor=none;top=0;left=0;bottom=0;right=0;pointerEvents=1;fontColor=#B09E8F;" parent="PPe0d2PN77lnOir_J0Dx-76" vertex="1">
          <mxGeometry x="205" width="205" height="21" as="geometry" />
        </mxCell>
        <mxCell id="PPe0d2PN77lnOir_J0Dx-82" value="" style="rounded=0;whiteSpace=wrap;html=1;align=left;" parent="1" vertex="1">
          <mxGeometry x="800" y="215" width="410" height="25" as="geometry" />
        </mxCell>
        <mxCell id="PPe0d2PN77lnOir_J0Dx-83" value="ALB SG" style="text;html=1;resizable=0;autosize=1;align=center;verticalAlign=middle;points=[];fillColor=none;strokeColor=none;rounded=0;fontStyle=1;fontColor=#0000CC;" parent="1" vertex="1">
          <mxGeometry x="975" y="217.5" width="60" height="20" as="geometry" />
        </mxCell>
        <mxCell id="PPe0d2PN77lnOir_J0Dx-84" value="" style="shape=table;startSize=0;container=1;collapsible=0;childLayout=tableLayout;" parent="1" vertex="1">
          <mxGeometry x="800" y="311.25" width="410" height="45" as="geometry" />
        </mxCell>
        <mxCell id="PPe0d2PN77lnOir_J0Dx-85" value="" style="shape=partialRectangle;collapsible=0;dropTarget=0;pointerEvents=0;fillColor=none;top=0;left=0;bottom=0;right=0;points=[[0,0.5],[1,0.5]];portConstraint=eastwest;" parent="PPe0d2PN77lnOir_J0Dx-84" vertex="1">
          <mxGeometry width="410" height="25" as="geometry" />
        </mxCell>
        <mxCell id="PPe0d2PN77lnOir_J0Dx-86" value="Ingress" style="shape=partialRectangle;html=1;whiteSpace=wrap;connectable=0;overflow=hidden;fillColor=none;top=0;left=0;bottom=0;right=0;pointerEvents=1;fontStyle=1" parent="PPe0d2PN77lnOir_J0Dx-85" vertex="1">
          <mxGeometry width="205" height="25" as="geometry" />
        </mxCell>
        <mxCell id="PPe0d2PN77lnOir_J0Dx-87" value="Egress" style="shape=partialRectangle;html=1;whiteSpace=wrap;connectable=0;overflow=hidden;fillColor=none;top=0;left=0;bottom=0;right=0;pointerEvents=1;fontStyle=1" parent="PPe0d2PN77lnOir_J0Dx-85" vertex="1">
          <mxGeometry x="205" width="205" height="25" as="geometry" />
        </mxCell>
        <mxCell id="PPe0d2PN77lnOir_J0Dx-88" value="" style="shape=partialRectangle;collapsible=0;dropTarget=0;pointerEvents=0;fillColor=none;top=0;left=0;bottom=0;right=0;points=[[0,0.5],[1,0.5]];portConstraint=eastwest;" parent="PPe0d2PN77lnOir_J0Dx-84" vertex="1">
          <mxGeometry y="25" width="410" height="20" as="geometry" />
        </mxCell>
        <mxCell id="PPe0d2PN77lnOir_J0Dx-89" value="&lt;div style=&quot;font-family: &amp;#34;menlo&amp;#34; , &amp;#34;monaco&amp;#34; , &amp;#34;courier new&amp;#34; , monospace ; line-height: 18px&quot;&gt;&lt;span style=&quot;background-color: rgb(255 , 255 , 255)&quot;&gt;&lt;font color=&quot;#b09e8f&quot;&gt;NodeGroup SG&lt;/font&gt;&lt;/span&gt;&lt;/div&gt;" style="shape=partialRectangle;html=1;whiteSpace=wrap;connectable=0;overflow=hidden;fillColor=none;top=0;left=0;bottom=0;right=0;pointerEvents=1;" parent="PPe0d2PN77lnOir_J0Dx-88" vertex="1">
          <mxGeometry width="205" height="20" as="geometry" />
        </mxCell>
        <mxCell id="PPe0d2PN77lnOir_J0Dx-90" value="&lt;font&gt;-&lt;/font&gt;" style="shape=partialRectangle;html=1;whiteSpace=wrap;connectable=0;overflow=hidden;fillColor=none;top=0;left=0;bottom=0;right=0;pointerEvents=1;fontColor=#B09E8F;" parent="PPe0d2PN77lnOir_J0Dx-88" vertex="1">
          <mxGeometry x="205" width="205" height="20" as="geometry" />
        </mxCell>
        <mxCell id="PPe0d2PN77lnOir_J0Dx-94" value="DB SG" style="text;html=1;resizable=0;autosize=1;align=center;verticalAlign=middle;points=[];fillColor=none;strokeColor=none;rounded=0;fontStyle=1;fontColor=#0000CC;" parent="1" vertex="1">
          <mxGeometry x="980" y="288.75" width="50" height="20" as="geometry" />
        </mxCell>
        <mxCell id="-5FiCxAMHHvJKQa-3Gor-2" style="edgeStyle=orthogonalEdgeStyle;rounded=0;orthogonalLoop=1;jettySize=auto;html=1;entryX=1;entryY=0.21;entryDx=0;entryDy=0;entryPerimeter=0;" edge="1" parent="1" source="-5FiCxAMHHvJKQa-3Gor-1" target="NVxo6oa8V2vWCA_GPj96-46">
          <mxGeometry relative="1" as="geometry">
            <Array as="points">
              <mxPoint x="700" y="630" />
              <mxPoint x="700" y="704" />
            </Array>
          </mxGeometry>
        </mxCell>
        <mxCell id="-5FiCxAMHHvJKQa-3Gor-3" value="SSL Certificate update/renew" style="edgeLabel;html=1;align=center;verticalAlign=middle;resizable=0;points=[];" vertex="1" connectable="0" parent="-5FiCxAMHHvJKQa-3Gor-2">
          <mxGeometry x="-0.4802" y="-1" relative="1" as="geometry">
            <mxPoint as="offset" />
          </mxGeometry>
        </mxCell>
        <mxCell id="-5FiCxAMHHvJKQa-3Gor-1" value="AWS Certificate Manager" style="sketch=0;outlineConnect=0;fontColor=#232F3E;gradientColor=none;strokeColor=#ffffff;fillColor=#232F3E;dashed=0;verticalLabelPosition=middle;verticalAlign=bottom;align=center;html=1;whiteSpace=wrap;fontSize=10;fontStyle=1;spacing=3;shape=mxgraph.aws4.productIcon;prIcon=mxgraph.aws4.certificate_manager_3;" vertex="1" parent="1">
          <mxGeometry x="857" y="557" width="75" height="115" as="geometry" />
        </mxCell>
      </root>
    </mxGraphModel>
  </diagram>
</mxfile>
